<?xml version="1.0" encoding="iso-8859-1"?>
<!-- Uploaded to: SVG Repo, www.svgrepo.com, Generator: SVG Repo Mixer Tools -->
<svg fill="#de5d83" height="200px" width="200px" version="1.1" id="Layer_1" xmlns="http://www.w3.org/2000/svg" xmlns:xlink="http://www.w3.org/1999/xlink"
	 viewBox="0 0 472.615 472.615" xml:space="preserve">
<g>
	<g>
		<path d="M377.763,60.264V17.721C377.763,7.933,369.828,0,360.04,0H112.571c-9.788,0-17.723,7.933-17.723,17.721v42.543H4.906
			v19.692H46.19l44.795,361.486c2.206,17.803,17.334,31.173,35.273,31.173h220.094c17.941,0,33.067-13.37,35.274-31.173
			l44.796-361.486h41.287V60.264H377.763z M151.8,409.534l-19.548-255.087l19.634-1.5l19.549,255.086L151.8,409.534z
			 M246.152,408.784H226.46V153.697h19.692V408.784z M320.81,409.534l-19.635-1.501l19.549-255.086l19.634,1.5L320.81,409.534z"/>
	</g>
</g>
</svg>